<svg width="32" height="32" viewBox="0 0 32 32" fill="none" xmlns="http://www.w3.org/2000/svg">
<path d="M29.5385 0H2.46154C1.10769 0 0 1.10769 0 2.46154V29.5385C0 30.8923 1.10769 32 2.46154 32H29.5385C30.8923 32 32 30.8923 32 29.5385V2.46154C32 1.10769 30.8923 0 29.5385 0ZM9.61969 27.0769H4.92308V11.9692H9.61969V27.0769ZM7.23446 10.1157C5.57415 10.1157 4.46523 8.93908 4.49969 7.48431C4.46523 5.96185 5.57415 4.81846 7.26892 4.81846C8.96615 4.81846 10.0394 5.96185 10.0738 7.48431C10.0751 8.93908 8.96738 10.1157 7.23446 10.1157ZM27.0769 27.0769H22.3815V18.7052C22.3815 16.7582 21.7009 15.4302 20.0012 15.4302C18.7052 15.4302 17.9323 16.3262 17.6234 17.1914C17.5003 17.4695 17.4388 17.9335 17.4388 18.3643V27.0769H12.7422V16.7902C12.7422 14.9046 12.6806 13.2985 12.6191 11.9705H16.6966L16.9132 14.0406H17.0068C17.6246 13.0818 19.1692 11.6308 21.6714 11.6308C24.7606 11.6308 27.0769 13.6689 27.0769 18.1182V27.0769Z" fill="white"/>
</svg>
