<?xml version="1.0" standalone="no"?>
<!DOCTYPE svg PUBLIC "-//W3C//DTD SVG 20010904//EN"
 "http://www.w3.org/TR/2001/REC-SVG-20010904/DTD/svg10.dtd">
<svg version="1.0" xmlns="http://www.w3.org/2000/svg"
 width="486.000000pt" height="486.000000pt" viewBox="0 0 486.000000 486.000000"
 preserveAspectRatio="xMidYMid meet">
<metadata>
Created by potrace 1.14, written by Peter Selinger 2001-2017
</metadata>
<g transform="translate(0.000000,486.000000) scale(0.100000,-0.100000)"
fill="#000000" stroke="none">
<path d="M3515 4622 c-5 -4 -11 -14 -13 -22 -2 -8 -8 -17 -13 -18 -5 -2 -7 -8
-3 -13 3 -5 0 -9 -6 -9 -6 0 -8 -4 -5 -10 3 -5 1 -10 -5 -10 -6 0 -8 -4 -5
-10 3 -5 1 -10 -5 -10 -6 0 -9 -4 -6 -8 3 -5 -6 -20 -18 -33 -13 -14 -27 -35
-30 -47 -4 -12 -12 -20 -17 -17 -5 4 -9 -3 -9 -13 0 -11 -7 -25 -16 -33 -8 -7
-13 -21 -11 -31 3 -10 1 -16 -4 -12 -5 3 -9 0 -9 -6 0 -12 -38 -51 -93 -95
-21 -16 -40 -39 -43 -52 -4 -13 -10 -23 -15 -23 -5 0 -8 -3 -8 -7 1 -5 -4 -24
-12 -43 -7 -19 -12 -38 -11 -42 1 -5 -2 -8 -6 -8 -5 0 -9 -6 -9 -12 0 -28 -38
-90 -84 -137 -27 -27 -49 -55 -49 -61 0 -6 -4 -9 -10 -5 -5 3 -13 -9 -18 -27
-8 -32 -7 -34 30 -52 22 -10 35 -22 30 -25 -6 -3 -14 -19 -17 -34 -4 -15 -12
-27 -17 -27 -6 0 -8 -7 -5 -15 4 -8 2 -17 -3 -20 -6 -4 -10 -14 -10 -23 0 -10
-9 -24 -19 -32 -11 -7 -18 -17 -16 -21 3 -4 -6 -10 -20 -13 -14 -4 -25 -11
-25 -17 0 -6 -4 -8 -9 -5 -5 4 -8 -5 -6 -19 1 -14 -2 -25 -7 -25 -5 0 -6 -4
-3 -10 3 -5 3 -10 -2 -11 -32 -3 -50 -11 -65 -28 -9 -12 -19 -21 -23 -21 -13
0 -54 -37 -48 -43 3 -4 -6 -11 -20 -16 -14 -5 -28 -19 -32 -30 -3 -12 -13 -21
-21 -21 -8 0 -12 -5 -9 -11 4 -6 -2 -13 -14 -16 -12 -3 -21 -9 -21 -14 0 -5
-7 -9 -15 -9 -22 0 -145 -59 -145 -69 0 -5 -13 -14 -29 -21 -16 -6 -32 -18
-35 -26 -3 -8 -11 -14 -17 -14 -13 0 -17 -4 -84 -68 -42 -40 -42 -41 -75 -49
-11 -3 -20 -10 -20 -15 0 -5 -8 -8 -17 -6 -10 2 -26 -5 -35 -16 -11 -11 -18
-14 -18 -6 0 8 -4 9 -12 3 -11 -9 -37 -15 -113 -28 -11 -2 -20 -4 -20 -5 0 -2
-27 -4 -60 -6 -84 -4 -126 -10 -155 -22 -14 -5 -38 -16 -55 -23 -16 -7 -33
-12 -37 -11 -5 1 -8 -3 -8 -9 0 -5 -4 -8 -9 -5 -5 3 -11 -1 -15 -9 -3 -8 -10
-15 -15 -15 -6 0 -24 -13 -40 -29 -16 -16 -43 -35 -60 -42 -17 -8 -31 -17 -31
-21 0 -5 -7 -8 -15 -8 -8 0 -15 -4 -15 -10 0 -5 -7 -6 -17 -3 -10 4 -14 2 -10
-4 6 -9 -45 -28 -65 -24 -5 0 -8 -4 -8 -10 0 -5 -5 -7 -10 -4 -6 4 -9 1 -8 -7
2 -7 -3 -12 -9 -10 -7 1 -13 -2 -13 -8 0 -5 -9 -19 -20 -30 -11 -11 -20 -17
-20 -13 0 4 -13 -6 -29 -21 -18 -17 -34 -25 -42 -21 -7 5 -10 4 -6 -2 4 -6 -2
-13 -14 -16 -18 -5 -19 -8 -8 -26 12 -17 10 -23 -14 -41 -15 -12 -27 -30 -27
-41 0 -11 -4 -17 -10 -14 -5 3 -11 -1 -11 -9 -1 -9 -2 -21 -3 -27 0 -6 -10
-17 -20 -25 -11 -8 -16 -14 -11 -14 5 0 0 -7 -11 -15 -10 -8 -16 -15 -12 -15
5 0 0 -8 -10 -18 -9 -11 -26 -32 -37 -47 -11 -16 -26 -34 -32 -41 -7 -7 -13
-16 -13 -20 0 -17 -146 -144 -166 -144 -7 0 -14 -5 -16 -12 -2 -6 -15 -13 -29
-15 -13 -2 -26 -8 -27 -13 -2 -6 -8 -7 -13 -4 -6 3 -17 0 -25 -7 -8 -6 -17 -9
-21 -6 -3 4 -11 2 -18 -3 -6 -5 -22 -12 -36 -14 -13 -3 -25 -5 -26 -7 -2 -1
-6 -2 -10 -3 -5 -1 -13 -5 -20 -9 -17 -11 -102 -17 -108 -8 -2 4 -18 6 -35 3
-19 -3 -30 0 -30 8 0 9 -3 10 -13 1 -8 -6 -17 -7 -23 -2 -5 5 -30 11 -56 14
l-48 6 0 -50 c0 -42 3 -52 20 -56 11 -3 20 -9 20 -14 0 -5 3 -8 8 -7 18 4 40
-15 35 -29 -4 -11 -2 -14 5 -9 7 4 12 2 12 -3 0 -6 3 -10 8 -10 22 4 32 -3 32
-21 0 -14 7 -20 23 -21 55 -2 81 -14 58 -28 -20 -12 5 -25 54 -29 47 -3 108
-8 131 -10 9 -1 12 -7 8 -14 -5 -7 -3 -8 7 -2 20 12 38 14 45 3 9 -15 34 -10
61 11 33 26 42 25 53 -2 5 -13 9 -17 9 -10 1 7 6 10 11 7 6 -3 10 -1 10 4 0 6
6 11 12 11 7 0 27 16 44 36 31 35 33 35 44 15 6 -12 7 -21 1 -21 -5 0 -11 -6
-14 -13 -4 -10 2 -13 19 -9 13 2 22 8 19 12 -3 5 4 11 15 15 11 4 17 11 14 17
-5 7 -1 9 9 5 10 -4 28 6 49 27 36 35 82 88 83 96 0 2 8 3 19 2 11 -2 16 1 11
7 -3 6 1 14 9 17 9 3 16 13 16 21 0 10 6 13 15 9 10 -3 18 1 22 12 7 17 28 42
36 42 10 0 15 -40 6 -46 -5 -3 -7 -10 -3 -15 7 -11 -47 -191 -55 -183 -3 3
-10 -12 -16 -33 -7 -21 -17 -37 -23 -36 -7 2 -12 -5 -12 -15 0 -17 -37 -58
-52 -57 -4 0 -16 -8 -27 -17 -11 -9 -23 -13 -27 -10 -4 4 -5 3 -2 -3 3 -5 1
-21 -5 -35 -12 -31 -16 -70 -7 -70 4 0 6 -30 5 -67 -5 -104 -22 -213 -34 -213
-6 0 -9 -10 -14 -65 -1 -14 -4 -25 -7 -25 -3 0 -7 -10 -7 -22 -1 -13 -7 -24
-12 -26 -5 -2 -8 -9 -5 -17 3 -7 1 -16 -5 -20 -6 -3 -11 -13 -11 -21 0 -9 -7
-22 -15 -31 -8 -8 -13 -19 -10 -24 4 -5 1 -9 -6 -9 -7 0 -9 -3 -6 -6 3 -4 1
-16 -6 -28 -14 -25 -17 -106 -4 -106 5 0 4 -7 -4 -16 -10 -13 -10 -17 0 -24
10 -6 10 -13 -4 -34 -17 -25 -26 -30 -52 -27 -7 1 -13 -2 -13 -8 0 -5 -13 -12
-30 -16 -16 -4 -30 -11 -30 -17 0 -5 -5 -8 -12 -6 -7 3 -32 -16 -56 -41 -24
-25 -48 -45 -52 -44 -5 2 -12 -6 -15 -17 -4 -11 -11 -20 -16 -20 -5 0 -8 -3
-7 -7 4 -12 -35 -53 -44 -47 -5 3 -7 1 -6 -4 4 -13 -63 -93 -73 -86 -5 3 -9 2
-8 -3 3 -20 -2 -33 -14 -30 -6 1 -11 -2 -10 -8 0 -5 -14 -21 -34 -35 -19 -14
-56 -42 -83 -62 -27 -21 -54 -38 -60 -38 -5 0 -10 -5 -10 -12 0 -6 -3 -8 -7
-5 -3 4 -12 2 -20 -4 -9 -8 -13 -37 -13 -95 l0 -84 2074 0 2075 0 18 30 c9 16
21 30 26 30 4 0 5 5 2 10 -3 6 -2 10 2 10 5 0 10 8 11 18 6 42 8 298 3 307 -3
6 -6 16 -8 24 -1 8 -7 17 -13 21 -7 4 -11 10 -10 14 1 4 -17 28 -39 54 -23 26
-41 55 -41 65 0 10 -4 16 -8 13 -11 -7 -9 105 2 123 7 11 6 12 -5 6 -12 -8
-12 -6 0 8 21 26 21 194 1 207 -11 7 -11 10 -2 10 7 0 -14 27 -47 60 -34 33
-60 62 -58 63 5 7 -31 36 -37 29 -4 -3 -4 1 0 11 4 12 1 17 -10 17 -9 0 -15 3
-13 8 3 9 -40 52 -52 52 -5 0 -11 5 -13 11 -2 6 -15 12 -30 12 -14 1 -24 5
-21 10 2 4 -7 7 -21 7 -14 0 -27 4 -31 10 -3 5 -12 7 -20 3 -8 -3 -15 0 -15 7
0 7 -7 10 -16 6 -8 -3 -12 -2 -9 4 3 6 -1 10 -9 10 -8 0 -19 6 -23 13 -8 13
-35 27 -49 26 -4 0 -10 3 -13 8 -9 13 -329 173 -346 173 -8 0 -15 4 -15 8 0
14 -73 14 -81 0 -7 -11 -9 -11 -9 0 0 9 -5 10 -18 3 -13 -7 -22 -7 -30 1 -8 8
-13 8 -17 -3 -7 -20 -85 -13 -85 7 0 8 -6 17 -14 20 -8 3 -13 13 -11 22 1 9 0
22 -4 27 -8 14 -10 31 -13 98 -1 31 -5 57 -8 57 -8 0 -5 43 3 57 4 7 3 14 -2
17 -11 7 -9 25 3 45 5 7 5 16 0 20 -13 9 -17 34 -4 26 6 -4 10 14 10 50 0 40
3 54 12 49 7 -4 8 -3 4 5 -4 6 -2 19 6 28 11 14 11 16 -2 8 -12 -7 -12 -5 1
11 19 23 54 96 51 107 -1 4 2 7 8 7 5 0 7 7 4 15 -4 8 -2 15 4 15 6 0 13 15
17 32 4 18 13 42 20 54 13 21 31 92 27 107 -1 4 3 7 9 7 5 0 8 4 4 9 -7 12 29
33 40 23 5 -4 5 -2 1 5 -7 13 33 83 47 83 5 0 5 -4 2 -10 -3 -5 -2 -10 4 -10
9 0 45 44 52 65 2 6 7 9 12 7 4 -1 6 1 6 5 -3 21 2 33 16 33 10 0 15 9 15 28
0 44 3 62 12 63 4 1 14 2 21 3 6 0 12 6 13 11 0 6 4 22 8 38 8 28 20 35 31 17
15 -24 26 5 20 49 -5 38 -3 50 11 62 10 8 15 9 11 2 -4 -6 -2 -15 4 -18 14 -9
8 47 -6 57 -6 5 -5 8 2 8 7 0 10 7 7 15 -7 18 7 20 23 4 6 -6 17 -9 23 -7 9 3
9 8 -2 19 -17 17 -34 59 -29 74 2 6 5 37 7 70 2 33 4 62 5 65 1 3 1 13 0 23
-1 9 4 17 11 17 9 0 9 3 -2 10 -8 5 -12 10 -9 10 4 0 3 16 -1 35 -5 23 -4 37
3 42 6 4 13 1 15 -5 2 -7 7 -12 12 -12 5 0 3 14 -3 32 -10 25 -9 32 1 36 10 3
10 7 1 18 -6 7 -9 19 -6 26 2 7 -2 28 -9 46 -7 18 -9 30 -4 27 6 -3 10 1 10 9
0 9 -4 16 -9 16 -22 0 -19 44 5 76 24 31 24 33 6 38 -11 4 -23 17 -26 29 -8
31 -7 39 4 32 6 -3 7 1 4 9 -3 9 -11 16 -16 16 -6 0 -8 9 -5 20 3 11 -3 29
-14 42 -18 19 -20 36 -18 140 1 65 5 121 11 124 5 3 4 12 -3 20 -6 8 -7 14 -2
14 5 0 8 25 6 55 -1 30 2 55 8 55 5 0 9 11 9 25 0 14 -4 25 -9 25 -5 0 -8 18
-8 40 0 22 4 40 8 40 3 0 11 27 16 60 5 33 6 60 1 60 -4 0 -8 11 -8 24 0 26
-15 43 -24 27 -4 -5 -19 -3 -36 6 -26 12 -28 17 -19 35 8 15 8 19 0 14 -7 -4
-11 0 -11 12 0 18 -63 82 -81 82 -5 0 -9 5 -9 10 0 12 -20 13 -35 2z m-1065
-2477 c0 -6 -5 -16 -12 -23 -9 -9 -4 -9 22 -2 37 10 50 6 50 -16 0 -10 5 -12
13 -7 6 4 20 6 31 4 11 -1 16 2 12 8 -4 6 -1 9 7 5 7 -2 21 -21 31 -40 9 -20
12 -33 7 -30 -5 4 -3 -7 5 -24 9 -16 15 -48 16 -70 0 -23 4 -37 10 -34 6 4 5
-4 -2 -16 -7 -12 -8 -20 -3 -17 5 3 10 -30 11 -74 1 -44 4 -84 7 -89 3 -5 0
-12 -6 -16 -8 -4 -7 -9 2 -16 12 -8 12 -10 0 -15 -11 -5 -11 -7 0 -14 11 -7
11 -9 1 -9 -10 0 -10 -5 -2 -20 6 -11 7 -20 3 -20 -4 0 -8 -21 -7 -47 1 -27
-2 -58 -7 -70 -6 -15 -2 -26 12 -39 10 -9 19 -23 19 -29 0 -7 7 -15 15 -19 8
-3 15 -12 15 -21 0 -8 5 -15 11 -15 5 0 7 -4 4 -10 -3 -5 -2 -10 3 -10 15 0
22 -41 11 -62 -6 -11 -16 -17 -24 -15 -7 3 -17 1 -21 -3 -5 -5 -21 -11 -34
-14 -14 -2 -27 -5 -30 -6 -3 -2 -9 -2 -14 -1 -4 1 -13 -2 -20 -7 -14 -12 -76
-26 -98 -23 -10 1 -18 -2 -18 -6 0 -5 -9 -9 -20 -10 -10 -1 -34 -8 -52 -16
-18 -8 -49 -21 -68 -28 -19 -7 -40 -18 -47 -24 -7 -5 -20 -17 -30 -25 -26 -23
-83 -40 -84 -26 0 8 -2 8 -5 0 -3 -7 -14 -10 -24 -7 -12 3 -20 0 -20 -7 0 -9
-3 -10 -13 -1 -8 6 -17 8 -21 4 -4 -4 -17 -8 -29 -10 -12 -1 -49 -5 -82 -8
-84 -8 -107 -13 -114 -23 -3 -5 -16 -11 -29 -14 -28 -8 -41 14 -38 65 1 21 -2
41 -6 43 -3 2 -3 17 1 32 4 15 7 44 6 65 0 20 3 37 7 37 3 0 8 10 10 23 2 12
9 21 16 19 8 -1 11 1 8 6 -3 4 4 21 15 38 10 16 19 25 19 21 0 -7 10 0 45 31
7 6 18 12 23 12 6 0 13 7 16 16 4 9 9 14 12 11 3 -3 16 4 29 16 12 12 39 37
59 55 20 19 36 40 36 48 0 8 3 14 8 14 8 0 32 49 32 67 0 7 5 13 11 13 5 0 7
5 4 10 -3 6 -1 10 6 10 7 0 9 10 7 25 -3 13 -1 22 3 19 5 -3 10 2 10 10 2 23
3 27 23 71 10 22 19 47 20 55 1 8 5 22 8 30 18 44 27 83 22 91 -3 5 0 9 6 9 6
0 9 4 6 9 -3 5 4 21 16 37 13 15 16 24 8 19 -9 -5 -6 2 5 15 37 44 64 70 73
70 5 0 15 7 22 15 14 17 70 17 70 0z m490 -66 c0 -6 7 -6 19 1 26 13 31 13 31
-5 0 -8 6 -15 13 -15 8 0 7 -4 -3 -10 -12 -7 -12 -10 -1 -10 7 0 11 -6 7 -15
-3 -8 -1 -15 4 -15 6 0 10 -9 10 -20 0 -11 6 -20 13 -20 8 0 7 -4 -3 -10 -11
-7 -11 -10 -2 -10 7 0 10 -5 7 -10 -4 -6 -2 -17 4 -23 11 -14 21 -68 24 -139
1 -27 5 -48 9 -48 5 0 8 -5 8 -11 0 -5 -5 -7 -11 -3 -8 4 -8 0 0 -15 7 -11 9
-21 6 -21 -4 0 -3 -5 1 -12 11 -17 10 -78 -1 -78 -5 0 -4 -5 3 -12 7 -7 12
-24 12 -38 0 -14 5 -31 12 -38 7 -7 8 -12 3 -12 -4 0 0 -10 11 -21 13 -15 15
-23 7 -26 -7 -2 -10 -10 -7 -16 4 -11 -29 -30 -101 -58 -16 -7 -32 -13 -35
-13 -3 -1 -9 -4 -15 -7 -28 -18 -93 10 -79 33 3 4 0 8 -5 8 -6 0 -11 9 -11 20
0 11 -4 20 -8 20 -5 0 -8 12 -7 28 1 15 -2 37 -6 50 -6 15 -5 22 4 23 9 0 9 2
0 5 -8 4 -9 13 -3 30 5 13 6 24 2 24 -8 0 -7 55 2 128 2 17 -1 32 -6 32 -6 0
-5 6 2 15 10 12 10 15 -1 15 -9 0 -10 3 -4 8 6 4 10 37 10 75 -1 37 2 67 5 67
3 0 6 9 6 20 0 11 -5 20 -11 20 -5 0 -4 4 3 9 8 4 13 11 13 15 -1 3 -1 26 -1
49 0 43 1 44 35 45 19 1 35 -3 35 -9z m-1230 -429 c11 -7 11 -10 2 -10 -10 0
-10 -5 -1 -21 6 -12 7 -19 2 -16 -5 3 -9 -13 -10 -36 -2 -57 -10 -99 -21 -106
-5 -3 -12 -18 -16 -33 -3 -16 -10 -27 -14 -25 -10 3 -62 -49 -62 -61 0 -5 6
-22 14 -38 17 -34 27 -76 30 -121 0 -18 3 -33 6 -33 3 0 5 -46 5 -102 0 -104
-11 -138 -42 -138 -7 0 -13 -5 -13 -12 0 -6 -3 -9 -6 -6 -3 4 -20 2 -37 -4
-18 -5 -39 -11 -47 -13 -8 -2 -17 -4 -20 -5 -3 -1 -8 -2 -12 -1 -5 0 -8 -3 -8
-9 0 -6 -3 -9 -7 -8 -17 4 -73 -14 -73 -23 0 -6 -4 -7 -10 -4 -5 3 -16 3 -22
-2 -15 -8 -19 -10 -68 -19 -19 -3 -38 -11 -42 -17 -6 -9 -8 -9 -8 1 0 6 -5 12
-11 12 -5 0 -8 -4 -4 -9 3 -6 -3 -10 -12 -10 -10 0 -32 -3 -49 -7 -24 -4 -33
-2 -37 11 -4 10 -3 14 4 9 8 -4 8 0 2 12 -5 11 -8 26 -8 34 2 26 48 171 57
176 4 3 8 14 8 25 0 10 4 19 8 19 5 0 9 6 10 13 2 27 9 46 21 61 11 13 11 16
0 16 -11 0 -11 2 -1 8 7 5 14 17 16 28 6 27 35 104 53 137 8 16 12 31 9 34 -3
3 2 12 10 20 8 8 11 19 8 25 -4 6 -3 8 3 5 5 -3 17 7 27 24 9 16 24 29 32 29
8 0 14 5 14 12 0 6 3 9 6 5 4 -3 12 -1 20 6 36 32 45 38 54 32 6 -3 10 1 10 9
0 10 6 13 15 10 8 -4 15 -1 15 5 0 6 6 11 13 11 7 0 24 10 37 23 14 12 27 22
30 21 7 -2 52 28 72 49 21 19 27 21 48 7z"/>
</g>
</svg>
